<?xml version="1.0" encoding="UTF-8"?>
<svg id="Layer_2" data-name="Layer 2" xmlns="http://www.w3.org/2000/svg" viewBox="0 0 17.3 22.97">
  <defs>
    <style>
      .cls-1 {
        fill: #abcc03;
      }
    </style>
  </defs>
  <g id="Layer_1-2" data-name="Layer 1">
    <g>
      <path class="cls-1" d="M14.04,20.9c0,.25-.11,.49-.29,.66-.19,.18-.44,.28-.71,.28s-.52-.1-.71-.28c-.19-.18-.29-.42-.29-.66v-7.43c.61-.37,1.4-.37,2.01,0v7.43ZM10,4.77c0-2,1.36-3.64,3.04-3.64s3.04,1.63,3.04,3.64-1.37,3.64-3.04,3.64-3.04-1.63-3.04-3.64m7.3,0c0-2.63-1.91-4.77-4.26-4.77s-4.26,2.14-4.26,4.77c0,2.4,1.59,4.39,3.65,4.72v2.63c-.52,.1-1,.32-1.4,.64-.13,.11-.21,.26-.21,.43v7.71c0,.55,.23,1.08,.65,1.46,.42,.39,.98,.61,1.57,.61s1.15-.22,1.57-.61c.42-.39,.65-.92,.65-1.46v-7.71c0-.16-.08-.32-.21-.43-.4-.32-.88-.54-1.4-.64v-2.63c2.06-.33,3.65-2.32,3.65-4.72"/>
      <path class="cls-1" d="M3.66,8.4h-.15c-1.27,0-2.29-.96-2.29-2.14v-.22H5.95v.22c0,1.18-1.03,2.14-2.29,2.14m.93,12.49c0,.25-.11,.49-.29,.66-.19,.18-.45,.28-.71,.28s-.52-.1-.71-.28c-.19-.18-.3-.42-.29-.66v-7.43c.61-.37,1.4-.37,2.01,0v7.43ZM6.56,.6c-.34,0-.61,.25-.61,.57v3.75H1.21V1.16c0-.31-.27-.57-.61-.57s-.61,.25-.61,.57V6.26c0,1.61,1.26,2.99,2.98,3.23v2.62c-.52,.1-1,.32-1.4,.64-.13,.11-.21,.26-.21,.43v7.71c0,.55,.23,1.08,.65,1.46,.42,.39,.98,.61,1.57,.61s1.15-.22,1.57-.61c.42-.39,.65-.92,.65-1.46v-7.71c0-.16-.08-.32-.21-.43-.4-.32-.88-.54-1.4-.64v-2.62c1.71-.25,2.97-1.62,2.98-3.23V1.16c0-.15-.06-.29-.18-.4-.11-.11-.27-.17-.43-.17"/>
      <path class="cls-1" d="M3.58,4.64c.33,0,.61-.25,.61-.56V1.16c0-.31-.27-.57-.61-.57s-.61,.25-.61,.57v2.91c0,.31,.27,.56,.61,.56"/>
    </g>
  </g>
</svg>