<?xml version="1.0" encoding="UTF-8"?>
<svg id="Layer_2" data-name="Layer 2" xmlns="http://www.w3.org/2000/svg" viewBox="0 0 21.35 15.48">
  <defs>
    <style>
      .cls-1 {
        fill: #abcc03;
      }
    </style>
  </defs>
  <g id="Layer_1-2" data-name="Layer 1">
    <path class="cls-1" d="M15.67,3.05c.08-.01,.16-.04,.23-.08l1.53-.98c.72-.46,1.66-.34,2.25,.29s.67,1.6,.2,2.32l-2.97,4.48-1.24-6.04Zm1.64,7.56l3.53-5.34c.78-1.2,.65-2.79-.32-3.83-.97-1.04-2.52-1.24-3.71-.48l-1.39,.89-.28-1.37c-.06-.28-.3-.48-.57-.48H4.22c-.32,0-.58,.27-.58,.6s.26,.6,.58,.6H14.09l2.33,11.37c.08,.41-.02,.85-.28,1.18-.26,.33-.65,.52-1.06,.52H3.7c-.41,0-.8-.19-1.06-.52-.26-.33-.36-.76-.28-1.18l.5-2.43h3.01c.32,0,.59-.27,.59-.6s-.26-.6-.59-.6H3.11l.37-1.81h2.39c.32,0,.59-.27,.59-.6s-.26-.6-.59-.6H3.73l.26-1.28c.18-.86-.03-1.76-.56-2.45l-.09-.11C2.65,1.2,1.53,.8,.46,1.04c-.15,.04-.28,.13-.37,.27S-.02,1.61,.01,1.76c.03,.16,.13,.29,.26,.38,.13,.08,.29,.11,.44,.08,.64-.15,1.3,.09,1.7,.62l.09,.11c.32,.41,.44,.94,.33,1.45l-1.62,7.92c-.16,.77,.03,1.57,.51,2.18,.48,.61,1.2,.97,1.97,.97H15.09c.77,0,1.49-.35,1.97-.97,.48-.61,.67-1.41,.51-2.18l-.33-1.62s.05-.06,.07-.09"/>
  </g>
</svg>